<svg width="22" height="24" viewBox="0 0 22 24" fill="none" xmlns="http://www.w3.org/2000/svg">
<path fill-rule="evenodd" clip-rule="evenodd" d="M3.63335 0.516677C3.83795 0.243887 4.15903 0.0833435 4.50002 0.0833435H17.5C17.841 0.0833435 18.1621 0.243887 18.3667 0.516677L21.6167 4.85001C21.7573 5.03753 21.8334 5.26561 21.8334 5.50001V20.6667C21.8334 21.5286 21.4909 22.3553 20.8815 22.9648C20.272 23.5743 19.4453 23.9167 18.5834 23.9167H3.41669C2.55473 23.9167 1.72808 23.5743 1.11859 22.9648C0.509097 22.3553 0.166687 21.5286 0.166687 20.6667V5.50001C0.166687 5.26561 0.242713 5.03753 0.383354 4.85001L3.63335 0.516677ZM5.04169 2.25001L2.33335 5.86112V20.6667C2.33335 20.954 2.44749 21.2295 2.65065 21.4327C2.85382 21.6359 3.12937 21.75 3.41669 21.75H18.5834C18.8707 21.75 19.1462 21.6359 19.3494 21.4327C19.5526 21.2295 19.6667 20.954 19.6667 20.6667V5.86112L16.9584 2.25001H5.04169Z" fill="#696969"/>
<path fill-rule="evenodd" clip-rule="evenodd" d="M0.166687 5.50001C0.166687 4.9017 0.651712 4.41668 1.25002 4.41668H20.75C21.3483 4.41668 21.8334 4.9017 21.8334 5.50001C21.8334 6.09832 21.3483 6.58334 20.75 6.58334H1.25002C0.651712 6.58334 0.166687 6.09832 0.166687 5.50001Z" fill="#696969"/>
<path fill-rule="evenodd" clip-rule="evenodd" d="M6.66669 8.75001C7.265 8.75001 7.75002 9.23503 7.75002 9.83334C7.75002 10.6953 8.09243 11.5219 8.70192 12.1314C9.31142 12.7409 10.1381 13.0833 11 13.0833C11.862 13.0833 12.6886 12.7409 13.2981 12.1314C13.9076 11.5219 14.25 10.6953 14.25 9.83334C14.25 9.23503 14.735 8.75001 15.3334 8.75001C15.9317 8.75001 16.4167 9.23503 16.4167 9.83334C16.4167 11.2699 15.846 12.6477 14.8302 13.6635C13.8144 14.6793 12.4366 15.25 11 15.25C9.56343 15.25 8.18568 14.6793 7.16986 13.6635C6.15404 12.6477 5.58335 11.2699 5.58335 9.83334C5.58335 9.23503 6.06838 8.75001 6.66669 8.75001Z" fill="#696969"/>
</svg>
