<svg width="25" height="23" viewBox="0 0 25 23" fill="none" xmlns="http://www.w3.org/2000/svg">
<path fill-rule="evenodd" clip-rule="evenodd" d="M15.1559 0.703018C16.0104 0.348935 16.9264 0.166687 17.8514 0.166687C18.7764 0.166687 19.6923 0.348935 20.5469 0.703018C21.4013 1.05704 22.1775 1.57589 22.8314 2.22995C23.4855 2.8838 24.0047 3.66045 24.3587 4.51484C24.7128 5.36939 24.895 6.28533 24.895 7.21033C24.895 8.13534 24.7128 9.05128 24.3587 9.90583C24.0046 10.7603 23.4857 11.5366 22.8316 12.1905C22.8315 12.1906 22.8316 12.1905 22.8316 12.1905L13.2549 21.7672C12.8318 22.1903 12.1459 22.1903 11.7228 21.7672L2.14618 12.1905C0.825348 10.8697 0.083313 9.07827 0.083313 7.21033C0.083313 5.34239 0.825348 3.55096 2.14618 2.23013C3.46701 0.909302 5.25844 0.167266 7.12638 0.167266C8.99432 0.167266 10.7857 0.909302 12.1066 2.23013L12.4889 2.61243L12.871 2.23031C12.8711 2.23025 12.8709 2.23037 12.871 2.23031C13.5249 1.57617 14.3014 1.05707 15.1559 0.703018ZM17.8514 2.33335C17.211 2.33335 16.5769 2.45953 15.9853 2.70466C15.3937 2.9498 14.8561 3.30909 14.4034 3.76202L13.2549 4.91053C12.8318 5.3336 12.1459 5.3336 11.7228 4.91053L10.5745 3.7622C9.66001 2.8477 8.41968 2.33393 7.12638 2.33393C5.83308 2.33393 4.59275 2.8477 3.67824 3.7622C2.76374 4.6767 2.24998 5.91703 2.24998 7.21033C2.24998 8.50363 2.76374 9.74397 3.67824 10.6585L12.4889 19.4691L21.2995 10.6585C21.7524 10.2058 22.1119 9.66805 22.357 9.07644C22.6022 8.48483 22.7284 7.85072 22.7284 7.21033C22.7284 6.56995 22.6022 5.93583 22.357 5.34422C22.1119 4.75261 21.7526 4.21509 21.2997 3.76238C20.847 3.30945 20.3091 2.9498 19.7175 2.70466C19.1259 2.45953 18.4918 2.33335 17.8514 2.33335Z" fill="#696969"/>
</svg>
